<svg width="320" height="90" viewBox="0 0 320 90" fill="none" xmlns="http://www.w3.org/2000/svg">
  <defs>
    <linearGradient id="iconGrad" x1="0%" y1="0%" x2="100%" y2="100%">
      <stop offset="0%" style="stop-color:#6366f1;stop-opacity:1" />
      <stop offset="50%" style="stop-color:#8b5cf6;stop-opacity:1" />
      <stop offset="100%" style="stop-color:#d946ef;stop-opacity:1" />
    </linearGradient>
    
    <linearGradient id="textGrad" x1="0%" y1="0%" x2="100%" y2="0%">
      <stop offset="0%" style="stop-color:#1e293b;stop-opacity:1" />
      <stop offset="100%" style="stop-color:#6366f1;stop-opacity:1" />
    </linearGradient>
  </defs>
  
  <!-- Icon Circle -->
  <circle cx="45" cy="45" r="38" fill="url(#iconGrad)"/>
  
  <!-- D Letter in Icon -->
  <g>
    <rect x="30" y="25" width="10" height="40" rx="2" fill="white"/>
    <path d="M 40 27 L 52 27 C 62 27 68 35 68 45 C 68 55 62 63 52 63 L 40 63 L 40 58 L 52 58 C 59 58 63 52 63 45 C 63 38 59 32 52 32 L 40 32 Z" 
          fill="white"/>
    <circle cx="55" cy="35" r="2" fill="#fbbf24"/>
    <circle cx="60" cy="55" r="1.5" fill="#34d399"/>
  </g>
  
  <!-- Text -->
  <text x="100" y="48" font-family="'Inter', 'Segoe UI', Arial, sans-serif" font-size="32" font-weight="800" fill="url(#textGrad)" letter-spacing="-1">
    Dukani
  </text>
  <text x="215" y="48" font-family="'Inter', 'Segoe UI', Arial, sans-serif" font-size="32" font-weight="300" fill="#64748b">
    Pro
  </text>
  
  <!-- Tagline -->
  <text x="100" y="68" font-family="'Inter', 'Segoe UI', Arial, sans-serif" font-size="11" font-weight="500" fill="#94a3b8" letter-spacing="1">
    BUSINESS MANAGEMENT
  </text>
  
  <!-- Decorative line -->
  <line x1="100" y1="58" x2="280" y2="58" stroke="#e2e8f0" stroke-width="1"/>
</svg>
