<svg width="200" height="200" viewBox="0 0 200 200" fill="none" xmlns="http://www.w3.org/2000/svg">
  <defs>
    <linearGradient id="storeCircle" x1="0%" y1="0%" x2="100%" y2="100%">
      <stop offset="0%" style="stop-color:#f59e0b;stop-opacity:1" />
      <stop offset="100%" style="stop-color:#d97706;stop-opacity:1" />
    </linearGradient>
  </defs>
  
  <rect width="200" height="200" rx="44" fill="url(#storeCircle)"/>
  
  <!-- Circle with D and store front -->
  <g>
    <!-- Main circle -->
    <circle cx="100" cy="100" r="50" fill="white"/>
    
    <!-- D -->
    <path d="M 78 78 L 78 122 L 102 122 C 115 122 125 112 125 100 C 125 88 115 78 102 78 Z" 
          fill="url(#storeCircle)"/>
    
    <!-- Mini store icon -->
    <!-- Awning -->
    <rect x="132" y="85" width="24" height="8" fill="#10b981"/>
    <path d="M 132 85 L 132 93 M 138 85 L 138 93 M 144 85 L 144 93 M 150 85 L 150 93 M 156 85 L 156 93" 
          stroke="white" stroke-width="1"/>
    
    <!-- Store building -->
    <rect x="135" y="93" width="18" height="15" fill="#f8fafc" stroke="#f59e0b" stroke-width="1"/>
    
    <!-- Door -->
    <rect x="142" y="100" width="5" height="8" fill="#f59e0b" opacity="0.5"/>
    
    <!-- Windows -->
    <rect x="137" y="96" width="3" height="3" fill="#f59e0b" opacity="0.3"/>
    <rect x="148" y="96" width="3" height="3" fill="#f59e0b" opacity="0.3"/>
  </g>
</svg>

