<svg width="200" height="200" viewBox="0 0 200 200" fill="none" xmlns="http://www.w3.org/2000/svg">
  <defs>
    <linearGradient id="storeGrad" x1="0%" y1="0%" x2="100%" y2="100%">
      <stop offset="0%" style="stop-color:#ec4899;stop-opacity:1" />
      <stop offset="100%" style="stop-color:#db2777;stop-opacity:1" />
    </linearGradient>
  </defs>
  
  <!-- Background -->
  <rect width="200" height="200" rx="44" fill="url(#storeGrad)"/>
  
  <!-- Storefront/Shop -->
  <g>
    <!-- Awning/Roof -->
    <path d="M 45 75 L 100 60 L 155 75 L 150 85 L 50 85 Z" fill="white"/>
    <line x1="50" y1="85" x2="45" y2="75" stroke="#ec4899" stroke-width="3"/>
    <line x1="70" y1="85" x2="67" y2="75" stroke="#ec4899" stroke-width="3"/>
    <line x1="90" y1="85" x2="88" y2="75" stroke="#ec4899" stroke-width="3"/>
    <line x1="110" y1="85" x2="109" y2="75" stroke="#ec4899" stroke-width="3"/>
    <line x1="130" y1="85" x2="131" y2="75" stroke="#ec4899" stroke-width="3"/>
    <line x1="150" y1="85" x2="155" y2="75" stroke="#ec4899" stroke-width="3"/>
    
    <!-- Building -->
    <rect x="55" y="85" width="90" height="65" rx="0" fill="white"/>
    
    <!-- Door -->
    <rect x="85" y="110" width="30" height="40" rx="3" fill="#ec4899" opacity="0.3"/>
    <circle cx="107" cy="130" r="2" fill="white"/>
    
    <!-- Window -->
    <rect x="60" y="95" width="20" height="20" rx="2" fill="#ec4899" opacity="0.2"/>
    <line x1="60" y1="105" x2="80" y2="105" stroke="#ec4899" stroke-width="1.5"/>
    <line x1="70" y1="95" x2="70" y2="115" stroke="#ec4899" stroke-width="1.5"/>
    
    <rect x="120" y="95" width="20" height="20" rx="2" fill="#ec4899" opacity="0.2"/>
    <line x1="120" y1="105" x2="140" y2="105" stroke="#ec4899" stroke-width="1.5"/>
    <line x1="130" y1="95" x2="130" y2="115" stroke="#ec4899" stroke-width="1.5"/>
  </g>
</svg>

