<svg width="200" height="200" viewBox="0 0 200 200" fill="none" xmlns="http://www.w3.org/2000/svg">
  <defs>
    <linearGradient id="grad7" x1="0%" y1="0%" x2="100%" y2="100%">
      <stop offset="0%" style="stop-color:#14b8a6;stop-opacity:1" />
      <stop offset="100%" style="stop-color:#0d9488;stop-opacity:1" />
    </linearGradient>
  </defs>
  
  <rect width="200" height="200" rx="44" fill="url(#grad7)"/>
  
  <!-- Flat receipt design -->
  <rect x="70" y="50" width="60" height="100" rx="6" fill="white"/>
  
  <!-- Receipt lines -->
  <line x1="78" y1="65" x2="122" y2="65" stroke="#14b8a6" stroke-width="3" stroke-linecap="round"/>
  <line x1="78" y1="78" x2="115" y2="78" stroke="#14b8a6" stroke-width="3" stroke-linecap="round"/>
  <line x1="78" y1="91" x2="118" y2="91" stroke="#14b8a6" stroke-width="3" stroke-linecap="round"/>
  <line x1="78" y1="104" x2="110" y2="104" stroke="#14b8a6" stroke-width="3" stroke-linecap="round"/>
  
  <!-- Total line (bold) -->
  <line x1="78" y1="125" x2="122" y2="125" stroke="#14b8a6" stroke-width="5" stroke-linecap="round"/>
  
  <!-- Receipt zigzag bottom -->
  <path d="M 70 145 L 75 150 L 80 145 L 85 150 L 90 145 L 95 150 L 100 145 L 105 150 L 110 145 L 115 150 L 120 145 L 125 150 L 130 145" 
        stroke="white" 
        stroke-width="3" 
        fill="none"/>
</svg>

