<svg width="200" height="200" viewBox="0 0 200 200" fill="none" xmlns="http://www.w3.org/2000/svg">
  <defs>
    <linearGradient id="cardCircle" x1="0%" y1="0%" x2="100%" y2="100%">
      <stop offset="0%" style="stop-color:#6366f1;stop-opacity:1" />
      <stop offset="100%" style="stop-color:#4f46e5;stop-opacity:1" />
    </linearGradient>
  </defs>
  
  <rect width="200" height="200" rx="44" fill="url(#cardCircle)"/>
  
  <!-- Circle with D and credit card -->
  <g>
    <!-- Main circle -->
    <circle cx="100" cy="100" r="50" fill="white"/>
    
    <!-- D -->
    <path d="M 78 78 L 78 122 L 102 122 C 115 122 125 112 125 100 C 125 88 115 78 102 78 Z" 
          fill="url(#cardCircle)"/>
    
    <!-- Mini credit card -->
    <rect x="130" y="90" width="26" height="18" rx="2" fill="#f8fafc" stroke="#6366f1" stroke-width="1.5"/>
    
    <!-- Card stripe -->
    <rect x="130" y="94" width="26" height="3" fill="#1e293b"/>
    
    <!-- Card chip -->
    <rect x="134" y="100" width="6" height="5" rx="1" fill="#fbbf24"/>
    
    <!-- Card lines -->
    <line x1="143" y1="102" x2="152" y2="102" stroke="#6366f1" stroke-width="1" opacity="0.5"/>
    <line x1="143" y1="105" x2="149" y2="105" stroke="#6366f1" stroke-width="1" opacity="0.5"/>
    
    <!-- Checkmark -->
    <circle cx="148" cy="84" r="6" fill="#10b981"/>
    <path d="M 145 84 L 147 86 L 151 82" stroke="white" stroke-width="1.5" stroke-linecap="round" stroke-linejoin="round" fill="none"/>
  </g>
</svg>

