<svg width="200" height="200" viewBox="0 0 200 200" fill="none" xmlns="http://www.w3.org/2000/svg">
  <defs>
    <linearGradient id="enhanced" x1="0%" y1="0%" x2="100%" y2="100%">
      <stop offset="0%" style="stop-color:#3b82f6;stop-opacity:1" />
      <stop offset="100%" style="stop-color:#2563eb;stop-opacity:1" />
    </linearGradient>
  </defs>
  
  <!-- Background -->
  <rect width="200" height="200" rx="44" fill="url(#enhanced)"/>
  
  <!-- Enhanced circle with business elements -->
  <g>
    <!-- Main circle -->
    <circle cx="100" cy="100" r="48" fill="white"/>
    
    <!-- D -->
    <path d="M 80 78 L 80 122 L 105 122 C 120 122 132 110 132 100 C 132 90 120 78 105 78 Z" 
          fill="url(#enhanced)"/>
    
    <!-- Growth bars inside D -->
    <rect x="88" y="105" width="5" height="12" rx="1.5" fill="white" opacity="0.9"/>
    <rect x="96" y="100" width="5" height="17" rx="1.5" fill="white" opacity="0.9"/>
    <rect x="104" y="94" width="5" height="23" rx="1.5" fill="white"/>
    
    <!-- Upward arrow -->
    <path d="M 142 88 L 147 83 L 152 88" 
          stroke="#10b981" 
          stroke-width="3" 
          stroke-linecap="round" 
          stroke-linejoin="round" 
          fill="none"/>
    <line x1="147" y1="83" x2="147" y2="97" stroke="#10b981" stroke-width="3" stroke-linecap="round"/>
    
    <!-- Dollar coin -->
    <circle cx="147" cy="112" r="9" fill="#fbbf24"/>
    <text x="147" y="116" font-family="Arial" font-size="10" font-weight="bold" fill="white" text-anchor="middle">$</text>
  </g>
</svg>
