<svg width="200" height="200" viewBox="0 0 200 200" fill="none" xmlns="http://www.w3.org/2000/svg">
  <defs>
    <!-- Dark Professional -->
    <linearGradient id="darkGrad" x1="0%" y1="0%" x2="100%" y2="100%">
      <stop offset="0%" style="stop-color:#1e293b;stop-opacity:1" />
      <stop offset="100%" style="stop-color:#334155;stop-opacity:1" />
    </linearGradient>
    
    <linearGradient id="emeraldGrad" x1="0%" y1="0%" x2="100%" y2="100%">
      <stop offset="0%" style="stop-color:#10b981;stop-opacity:1" />
      <stop offset="100%" style="stop-color:#059669;stop-opacity:1" />
    </linearGradient>
  </defs>
  
  <!-- Dark background -->
  <rect width="200" height="200" rx="45" fill="url(#darkGrad)"/>
  
  <!-- Sleek D with emerald accent -->
  <g>
    <!-- Left bar -->
    <rect x="55" y="55" width="15" height="90" rx="3" fill="white"/>
    
    <!-- Curve -->
    <path d="M 70 60 L 105 60 C 128 60 143 77 143 100 C 143 123 128 140 105 140 L 70 140 L 70 128 L 105 128 C 120 128 131 117 131 100 C 131 83 120 72 105 72 L 70 72 Z" fill="white"/>
    
    <!-- Emerald accent bar -->
    <rect x="150" y="90" width="5" height="40" rx="2.5" fill="url(#emeraldGrad)"/>
    <rect x="158" y="85" width="5" height="50" rx="2.5" fill="url(#emeraldGrad)" opacity="0.6"/>
  </g>
</svg>

