<svg width="200" height="200" viewBox="0 0 200 200" fill="none" xmlns="http://www.w3.org/2000/svg">
  <defs>
    <linearGradient id="stripe1" x1="0%" y1="0%" x2="100%" y2="100%">
      <stop offset="0%" style="stop-color:#6366f1;stop-opacity:1" />
      <stop offset="100%" style="stop-color:#4f46e5;stop-opacity:1" />
    </linearGradient>
  </defs>
  
  <rect width="200" height="200" rx="44" fill="url(#stripe1)"/>
  
  <!-- Stripe-inspired ultra minimal lines forming D -->
  <g>
    <!-- Three curved lines suggesting D -->
    <path d="M 65 80 C 65 80 90 80 100 80 C 120 80 130 90 130 100 C 130 110 120 120 100 120 C 90 120 65 120 65 120" 
          stroke="white" 
          stroke-width="12" 
          fill="none"
          stroke-linecap="round"/>
    
    <path d="M 65 95 C 65 95 85 95 95 95 C 110 95 118 100 118 100 C 118 100 110 105 95 105 C 85 105 65 105 65 105" 
          stroke="white" 
          stroke-width="12" 
          fill="none"
          stroke-linecap="round"
          opacity="0.7"/>
    
    <!-- Vertical bar -->
    <line x1="65" y1="75" x2="65" y2="125" stroke="white" stroke-width="14" stroke-linecap="round"/>
  </g>
</svg>

