<svg width="200" height="200" viewBox="0 0 200 200" fill="none" xmlns="http://www.w3.org/2000/svg">
  <defs>
    <linearGradient id="posGrad" x1="0%" y1="0%" x2="100%" y2="100%">
      <stop offset="0%" style="stop-color:#3b82f6;stop-opacity:1" />
      <stop offset="100%" style="stop-color:#1d4ed8;stop-opacity:1" />
    </linearGradient>
  </defs>
  
  <!-- Background -->
  <rect width="200" height="200" rx="44" fill="url(#posGrad)"/>
  
  <!-- POS Terminal / Card Reader -->
  <g>
    <!-- Screen/Display -->
    <rect x="60" y="55" width="80" height="60" rx="6" fill="white"/>
    
    <!-- Screen content (receipt lines) -->
    <line x1="70" y1="70" x2="120" y2="70" stroke="#3b82f6" stroke-width="3" stroke-linecap="round"/>
    <line x1="70" y1="82" x2="110" y2="82" stroke="#3b82f6" stroke-width="3" stroke-linecap="round"/>
    <line x1="70" y1="94" x2="125" y2="94" stroke="#3b82f6" stroke-width="3" stroke-linecap="round"/>
    
    <!-- Keypad/Base -->
    <rect x="55" y="120" width="90" height="35" rx="6" fill="white" opacity="0.95"/>
    
    <!-- Keypad buttons -->
    <rect x="65" y="128" width="12" height="8" rx="2" fill="#3b82f6" opacity="0.5"/>
    <rect x="82" y="128" width="12" height="8" rx="2" fill="#3b82f6" opacity="0.5"/>
    <rect x="99" y="128" width="12" height="8" rx="2" fill="#3b82f6" opacity="0.5"/>
    <rect x="116" y="128" width="12" height="8" rx="2" fill="#3b82f6" opacity="0.5"/>
    
    <rect x="65" y="140" width="12" height="8" rx="2" fill="#3b82f6" opacity="0.5"/>
    <rect x="82" y="140" width="12" height="8" rx="2" fill="#3b82f6" opacity="0.5"/>
    <rect x="99" y="140" width="12" height="8" rx="2" fill="#10b981" opacity="0.7"/>
  </g>
</svg>

