<svg width="200" height="200" viewBox="0 0 200 200" fill="none" xmlns="http://www.w3.org/2000/svg">
  <defs>
    <linearGradient id="grad19" x1="0%" y1="0%" x2="100%" y2="100%">
      <stop offset="0%" style="stop-color:#3b82f6;stop-opacity:1" />
      <stop offset="100%" style="stop-color:#2563eb;stop-opacity:1" />
    </linearGradient>
  </defs>
  
  <rect width="200" height="200" rx="44" fill="url(#grad19)"/>
  
  <!-- Credit card simple flat -->
  <g>
    <!-- Card -->
    <rect x="50" y="80" width="100" height="60" rx="8" fill="white"/>
    
    <!-- Magnetic stripe -->
    <rect x="50" y="92" width="100" height="10" fill="#1e293b"/>
    
    <!-- Chip -->
    <rect x="62" y="110" width="18" height="14" rx="3" fill="#fbbf24"/>
    <line x1="66" y1="110" x2="66" y2="124" stroke="#f59e0b" stroke-width="1"/>
    <line x1="70" y1="110" x2="70" y2="124" stroke="#f59e0b" stroke-width="1"/>
    <line x1="74" y1="110" x2="74" y2="124" stroke="#f59e0b" stroke-width="1"/>
    
    <!-- Card number dots -->
    <circle cx="95" cy="117" r="2" fill="#3b82f6" opacity="0.5"/>
    <circle cx="102" cy="117" r="2" fill="#3b82f6" opacity="0.5"/>
    <circle cx="109" cy="117" r="2" fill="#3b82f6" opacity="0.5"/>
    <circle cx="116" cy="117" r="2" fill="#3b82f6" opacity="0.5"/>
    
    <circle cx="123" cy="117" r="2" fill="#3b82f6" opacity="0.5"/>
    <circle cx="130" cy="117" r="2" fill="#3b82f6" opacity="0.5"/>
    <circle cx="137" cy="117" r="2" fill="#3b82f6" opacity="0.5"/>
    
    <!-- Contactless symbol -->
    <path d="M 125 105 Q 130 105 130 110" stroke="#3b82f6" stroke-width="2" fill="none" opacity="0.6"/>
    <path d="M 130 105 Q 137 105 137 112" stroke="#3b82f6" stroke-width="2" fill="none" opacity="0.6"/>
    <path d="M 135 105 Q 144 105 144 114" stroke="#3b82f6" stroke-width="2" fill="none" opacity="0.6"/>
  </g>
</svg>

