<svg width="200" height="200" viewBox="0 0 200 200" fill="none" xmlns="http://www.w3.org/2000/svg">
  <defs>
    <linearGradient id="analyticsCircle" x1="0%" y1="0%" x2="100%" y2="100%">
      <stop offset="0%" style="stop-color:#06b6d4;stop-opacity:1" />
      <stop offset="100%" style="stop-color:#0891b2;stop-opacity:1" />
    </linearGradient>
  </defs>
  
  <rect width="200" height="200" rx="44" fill="url(#analyticsCircle)"/>
  
  <!-- Circle with D and analytics -->
  <g>
    <!-- Main circle -->
    <circle cx="100" cy="100" r="50" fill="white"/>
    
    <!-- D -->
    <path d="M 78 78 L 78 122 L 102 122 C 115 122 125 112 125 100 C 125 88 115 78 102 78 Z" 
          fill="url(#analyticsCircle)"/>
    
    <!-- Pie chart segment outside circle -->
    <path d="M 145 100 L 145 82 A 18 18 0 0 1 157 95 Z" fill="#10b981"/>
    <path d="M 145 100 L 157 95 A 18 18 0 0 1 152 112 Z" fill="#fbbf24"/>
    <path d="M 145 100 L 152 112 A 18 18 0 0 1 140 115 Z" fill="#ec4899" opacity="0.7"/>
    
    <!-- Small trend line -->
    <path d="M 133 90 L 138 87 L 143 89 L 148 84" 
          stroke="#10b981" 
          stroke-width="2.5" 
          stroke-linecap="round"
          stroke-linejoin="round"
          fill="none"/>
  </g>
</svg>

