<svg width="200" height="200" viewBox="0 0 200 200" fill="none" xmlns="http://www.w3.org/2000/svg">
  <defs>
    <linearGradient id="grad5" x1="0%" y1="0%" x2="100%" y2="100%">
      <stop offset="0%" style="stop-color:#ec4899;stop-opacity:1" />
      <stop offset="100%" style="stop-color:#db2777;stop-opacity:1" />
    </linearGradient>
  </defs>
  
  <rect width="200" height="200" rx="44" fill="url(#grad5)"/>
  
  <!-- Simple flat store icon -->
  <g>
    <!-- Awning -->
    <rect x="50" y="70" width="100" height="25" rx="0" fill="white"/>
    <path d="M 50 70 L 50 95 M 65 70 L 65 95 M 80 70 L 80 95 M 95 70 L 95 95 M 110 70 L 110 95 M 125 70 L 125 95 M 140 70 L 140 95 M 150 70 L 150 95" 
          stroke="#ec4899" stroke-width="2"/>
    
    <!-- Building -->
    <rect x="55" y="95" width="90" height="60" fill="white"/>
    
    <!-- Door -->
    <rect x="85" y="120" width="30" height="35" fill="#ec4899" opacity="0.3"/>
    
    <!-- Windows -->
    <rect x="62" y="105" width="18" height="18" fill="#ec4899" opacity="0.2"/>
    <rect x="120" y="105" width="18" height="18" fill="#ec4899" opacity="0.2"/>
    
    <!-- Base -->
    <rect x="50" y="155" width="100" height="5" fill="white" opacity="0.8"/>
  </g>
</svg>

